<svg xmlns="http://www.w3.org/2000/svg" viewBox="0 0 1336.17 2758.04"><defs><style>.cls-1{fill:#e5e5e5;}</style></defs><title>back-left</title><g id="Camada_2" data-name="Camada 2"><g id="Camada_1-2" data-name="Camada 1"><path class="cls-1" d="M1328.2,2740.21a.18.18,0,0,0,.17-.23c-51.6-203-67.6-358.49-64-421.42,6.88-118.94,31.06-128.55,37.21-245.65,13.71-260.7-81-298.26-77-527.73.79-45.11,6.42-81.73,10-104.74,16.58-105.72,42.25-143,61.62-219.79,23.48-93,18.07-166.13,11.13-259.92-5.39-72.86-11.59-149.07-43-242.89-20.65-61.62-49.17-121.46-61.51-221a612.15,612.15,0,0,1-5-62.47c-1.95-73.77,10.77-125.24,31.13-210.63a1360.77,1360.77,0,0,1,70.86-215.5L7.5,7.5q1.83,1371.53,3.67,2743Z"/><path class="cls-1" d="M1334.67,2744c4.8-6.25-3.29-22.81-5-29.61q-5.31-21.63-10.26-43.35-9.53-41.7-17.69-83.69c-9.08-46.86-16.9-94-22.57-141.41-8.38-70-11.12-138.74,2.3-208.44,6.89-35.79,17.26-70.71,22.27-106.88,6.94-50.15,8.36-101.5,5.5-152-4.25-75-24-145.13-45.43-216.63-24-80.21-35.82-161.35-30.55-245.25a762.38,762.38,0,0,1,23.51-146.31c10.06-38.09,24.72-74.64,36.57-112.17a583.52,583.52,0,0,0,27-153.11c2.11-54.15-2.61-108.4-6.79-162.35-3.76-48.52-9-96.93-19.31-144.55-10.21-47.39-26.17-92.65-42.59-138.13-32.63-90.4-52.91-186.21-44.69-282.75,4.37-51.33,17.27-101.61,29.27-151.56a1378.07,1378.07,0,0,1,46.53-154q11.09-30.12,23.57-59.7c2.13-5-.24-11.28-6.47-11.28L292.26.17,7.5,0A7.61,7.61,0,0,0,0,7.5L1.44,1080.62q.71,533.84,1.42,1067.65l.81,602.27a7.61,7.61,0,0,0,7.5,7.5L1038.56,2750l289.64-2.27c9.64-.07,9.67-15.07,0-15l-1027.39,8.06L11.17,2743l7.5,7.5L17.23,1677.41q-.7-533.82-1.42-1067.65L15,7.5,7.5,15l1007.6.61,284.76.17-6.48-11.29c-39.79,94.18-67.76,192.1-88.87,292.05-20,94.67-17.39,190.1,6.36,284,10.63,42,26.21,82.33,40.66,123.13a803.64,803.64,0,0,1,37.87,152c7.46,50.88,10.71,102.47,13.93,153.76,3.52,56.23,4.18,112.66-5.54,168.35-7.64,43.79-21.64,85.42-36.23,127.25-15.38,44.07-27.11,88.7-34.37,134.86-13.7,87.19-14.23,175.92,5.11,262.33,15.27,68.19,41.55,133.31,53.58,202.31,15.79,90.64,13.95,187.5-7.09,277.08-15.92,67.83-25.39,134.62-20.44,204.33,6.44,90.6,22.66,180.71,42.19,269.31q4.41,20,9.13,40,2.74,11.58,5.58,23.15c.41,1.71,4.73,20.32,6.47,18.06C1315.84,2744.08,1328.87,2751.56,1334.67,2744Z"/></g></g></svg>