<svg xmlns="http://www.w3.org/2000/svg" viewBox="0 0 1409.44 2749.05"><defs><style>.cls-1{fill:#171717;}</style></defs><title>back-right</title><g id="Camada_2" data-name="Camada 2"><g id="Camada_1-2" data-name="Camada 1"><path class="cls-1" d="M109.54,9.61C109.2,9.17,100,32.15,90.61,56.7A1336.15,1336.15,0,0,0,38.69,225.12C19.45,305.81,6.5,361.3,7.56,435.74c1,70.95,14.42,125.47,22,155.41,14.79,58.67,27.83,80.06,44.51,128,32.31,93,37.59,169.21,43,242.89C124,1055.85,129.43,1129,106,1222c-19.37,76.76-45,114.07-61.63,219.79-3.61,23-9.23,59.63-10,104.75-4,229.46,90.71,267,77,527.72C105.16,2191.35,81,2201,74.1,2319.9c-3.64,62.95,12.37,218.56,64,421.65l1263.82-3c-.91-910.34-2.72-2731-2.72-2731S109.89,10.05,109.54,9.61Z"/><path class="cls-1" d="M104.24,4.31c-3.3,3.88-4.8,9.56-6.69,14.2-5.08,12.46-9.94,25-14.71,37.6Q71.92,84.92,62.25,114.17C44.88,166.92,31.46,220.79,19.36,275,8.25,324.76.12,375,0,426.13c-.11,48.69,6,97.26,16.87,144.67,9.53,41.4,23.27,80.61,38.71,120.09A740.93,740.93,0,0,1,98.41,849.83c7.65,50.5,10.7,101.76,14.07,152.69,3.71,55.88,5.22,112.06-3.51,167.58-7.12,45.29-21,88.42-36.08,131.53-15.24,43.48-27.51,87.38-34.95,132.92-14.38,88-15.83,177.62,3.19,265.08,14.84,68.22,41.26,133.29,53.71,202.12,16.42,90.78,15.2,188.38-5.68,278.27-16,68.9-26.15,136.42-21.11,207.26,6.44,90.65,22.68,180.81,42.22,269.45q9.6,43.58,20.62,86.81a7.62,7.62,0,0,0,7.23,5.51l986-2.35,277.83-.67a7.61,7.61,0,0,0,7.5-7.5q-.32-308.42-.62-616.82-.35-351.54-.7-703.08l-.66-667.45-.51-510-.16-158.44c0-23.94,1.19-48.25-.07-72.17-.06-1,0-2.08,0-3.11a7.61,7.61,0,0,0-7.5-7.5L1271.36.25,964.15.83q-186,.36-372,.68Q431,1.8,269.93,2c-52.63.07-105.27.36-157.9.11-1.28,0-4.34-.54-.49.24-9.43-1.9-13.46,12.56-4,14.46,11.27,2.27,24.58.32,36,.32q46.61,0,93.2-.09,154.08-.2,308.15-.48,186-.32,372-.67L1240,15.31l106.82-.21,32.6-.06c5.29,0,12.5,1.28,17.65,0a10.11,10.11,0,0,1,2.2,0l-7.5-7.5.18,187.8.48,482.16.66,654.64q.35,352.64.7,705.27l.63,634,.07,67.14,7.5-7.5-986,2.35-277.82.67,7.23,5.5C120,2639.54,98.94,2538,87.5,2435.34c-7.86-70.48-8.76-139.34,6.26-209.15,7.6-35.34,16.91-70,21.21-106a794.79,794.79,0,0,0,2.93-155.75c-5.73-72.92-26.76-141-47.21-210.7C47,1672.92,37,1590.22,43.83,1506c3.89-47.72,11.89-95.66,24.7-141.8,10.62-38.27,25.67-75.07,37.13-113.06a582.47,582.47,0,0,0,24.67-154.18c1.31-53.23-3.49-106.53-7.59-159.55-3.79-49.15-9.18-98.2-20.21-146.32C91.4,742.46,73.18,697,55.79,650.52,22.41,561.22,7.92,462.29,18.22,367.43c5.9-54.29,19.33-108,32.76-160.85a1343.62,1343.62,0,0,1,42.5-136.3Q99.17,55,105.13,39.81C107.39,34,109.66,28.24,112,22.5c.64-1.58,3.26-8.08,2.84-7.59C121.07,7.6,110.51-3.06,104.24,4.31Z"/></g></g></svg>