<svg xmlns="http://www.w3.org/2000/svg" viewBox="0 0 33.49 114.71"><defs><style>.cls-1{fill:#76a880;}</style></defs><title>s-verd</title><g id="Camada_2" data-name="Camada 2"><g id="Camada_1-2" data-name="Camada 1"><path class="cls-1" d="M9.66,111.06C6.22,101.4,4.7,90.85,7,80.73a37.19,37.19,0,0,1,6.35-14.2c2.75-3.71,6.3-6.66,9.28-10.16C35.69,41,36,20.09,28.68,2c-1.43-3.54-7.23-2-5.78,1.59,4,9.82,6,20.68,3.89,31.2a37.11,37.11,0,0,1-6.45,14.83C17.56,53.4,14.06,56.38,11,59.89-1.76,74.5-2.39,95,3.88,112.66c1.28,3.61,7.08,2,5.78-1.6Z"/></g></g></svg>