<svg xmlns="http://www.w3.org/2000/svg" viewBox="0 0 428.7 110.38"><defs><style>.cls-1{fill:#423989;}.cls-2{fill:#614141;}.cls-3{fill:#a28051;}.cls-4{fill:#3e9854;stroke:#634243;}.cls-4,.cls-5{stroke-miterlimit:10;stroke-width:0.5px;}.cls-5{fill:#fff;stroke:#fff;}</style></defs><title>Keyboard</title><g id="Camada_2" data-name="Camada 2"><g id="Camada_1-2" data-name="Camada 1"><path d="M257.9,4.24q29.19,0,58.36.07c5.49,0,5.62.17,5.64,5.77q0,3.8,0,7.61c0,5.31-.32,5.79-5.77,5.79-23.53,0-47.07-.23-70.6-.27-14.09,0-28.17.14-42.26.2-1.83,0-3.66-.1-5.49-.18-2.18-.1-3.34-1.16-3.33-3.46,0-3.52,0-7-.17-10.56-.15-3.76,1.38-5.15,5.28-5.11C219,4.29,238.45,4.22,257.9,4.24Z"/><path d="M88.57,47.24c7.48,0,15,.1,22.44,0,3,0,4.41,1.11,4.31,4.22-.12,3.52-.17,7.06,0,10.58.16,3.16-1.34,4.28-4.25,4.35-7.76.2-15.5-.42-23.27,0-7,.37-14.11,0-21.16.08-3.39,0-4.94-1.23-4.74-4.75a85.37,85.37,0,0,0,0-9.73c-.22-3.77,1.49-4.92,5.06-4.83C74.17,47.35,81.37,47.23,88.57,47.24Z"/><path d="M401.6,26.33c7.47,0,14.94.1,22.4,0,3.26-.06,4.64,1.2,4.51,4.47-.14,3.51-.08,7,0,10.56,0,2.62-1.09,3.85-3.8,3.84q-23.46-.09-46.92,0c-2.67,0-3.9-1.21-3.91-3.79,0-3.52,0-7,0-10.56-.05-3.14,1.23-4.59,4.55-4.52C386.1,26.41,393.85,26.32,401.6,26.33Z"/><path d="M85.07,109.9c-6.2,0-12.41-.15-18.6,0-3.58.11-4.79-1.36-4.61-4.76s.09-7,.06-10.57c0-2.64,1.29-3.91,3.86-3.91q19.66,0,39.33.08c2.78,0,4.07,1.47,4,4.27-.06,3.66-.07,7.33,0,11,.06,2.93-1.35,4-4.16,3.91C98.32,109.85,91.7,109.91,85.07,109.9Z"/><path d="M409.1,47.61c4.93,0,9.86.11,14.79,0,3.18-.08,4.74,1,4.6,4.38-.14,3.52-.1,7,0,10.56,0,2.73-1,4.31-3.92,4.29-10.83,0-21.67-.06-32.51-.14-2,0-3.08-1.24-3.1-3.24q-.06-6.12,0-12.25c0-2.68,1.57-3.65,4.12-3.61C398.4,47.64,403.75,47.6,409.1,47.61Z"/><path d="M106.34,26c4.92,0,9.85.09,14.78,0,3-.06,4.41,1.09,4.29,4.21-.14,3.65-.1,7.32,0,11,0,2.42-.86,3.67-3.43,3.65q-15.4-.07-30.82,0c-2.73,0-3.79-1.32-3.76-3.9q.08-5.48,0-11c0-2.87,1.35-4,4.16-4C96.48,26.05,101.41,26,106.34,26Z"/><path d="M79.93,69.17c4.66,0,9.31,0,14,0,2.47,0,3.63,1,3.58,3.56q-.09,5.92,0,11.85c0,2.59-1.28,3.43-3.68,3.41q-14-.08-27.94,0c-2.41,0-3.68-.75-3.59-3.41.11-3.38,0-6.77-.1-10.15-.13-3.86,1.37-5.65,5.5-5.34s8.18.07,12.27.08Z"/><path d="M411.69,69.55c4.37,0,8.75,0,13.12,0,2.49,0,3.62,1.14,3.6,3.59,0,4,0,7.91,0,11.86,0,2.25-1.11,3.35-3.39,3.34q-13.14,0-26.26,0c-2.3,0-3.34-1.08-3.31-3.36,0-4,.05-7.9,0-11.85,0-2.48,1.05-3.63,3.55-3.6C403.22,69.58,407.45,69.55,411.69,69.55Z"/><path d="M415.36,4.44c3.24,0,6.47,0,9.7,0,2.44,0,3.65,1.08,3.63,3.55,0,3.94,0,7.88,0,11.81,0,2.2-.9,3.38-3.19,3.56-6.74.54-13.48.26-20.23.19-2.07,0-3-1.17-3-3.22q0-6.33,0-12.65c0-2.31,1.11-3.3,3.37-3.27C408.89,4.46,412.13,4.43,415.36,4.44Z"/><path d="M127,4.11c3.09,0,6.19,0,9.29,0,2.44,0,3.67,1,3.65,3.51,0,4.08,0,8.17,0,12.25,0,2.59-1.41,3.45-3.74,3.44q-9.48,0-19-.06c-2.31,0-3.75-.89-3.71-3.49.07-4.08.05-8.17,0-12.25,0-2.56,1.36-3.47,3.74-3.43C120.47,4.14,123.71,4.1,127,4.11Z"/><path d="M98.93,4.06c12.56.17,11.07-1.72,11.12,11.38,0,7.85,0,7.86-8.1,7.86-3.38,0-6.77-.07-10.16,0-3,0-4.45-1.26-4.39-4.32.06-3.39.1-6.78,0-10.16s1.24-5,4.75-4.78C94.4,4.18,96.67,4.06,98.93,4.06Z"/><path d="M73.63,4c12.73.15,11-1.56,11.13,11.32a23.7,23.7,0,0,0,0,2.53c.39,3.67-.83,5.52-4.91,5.29-4.48-.24-9,0-13.5.08-2.74.05-4.21-1-4.14-4,.08-3.52,0-7-.09-10.55C62,5.38,63.36,3.73,66.87,4,69.11,4.16,71.38,4,73.63,4Z"/><path d="M171.58,110c-12.4-.25-11.25,2-11.29-11.23,0-7.91.12-8,8-8,3.24,0,6.48.07,9.73,0s5,1.18,4.9,4.72c-.14,3.38-.15,6.77,0,10.15s-1.35,4.6-4.57,4.4C176.1,109.89,173.84,110,171.58,110Z"/><path d="M180,4.17c12.07.15,11.25-1.82,11.24,11.39,0,7.68-.17,7.84-7.78,7.83-3.52,0-7-.06-10.57-.06-2.9,0-4.45-1.16-4.31-4.33.16-3.65.1-7.33,0-11,0-2.64,1.06-3.94,3.77-3.87C174.91,4.21,177.45,4.16,180,4.17Z"/><path d="M362.15,4.36c11.81.31,11.32-2.57,11.12,11.74,0,1.27-.23,2.53-.2,3.79,0,2.44-1.06,3.67-3.52,3.67-5.06,0-10.12,0-15.18,0-2.63,0-3.75-1.38-3.69-4,.09-3.66.11-7.31,0-11C350.6,5.49,352,4.2,355,4.34,357.37,4.44,359.76,4.36,362.15,4.36Z"/><path d="M252,47.42c11.78.17,11.17-1.72,11.14,11,0,1.12-.06,2.25,0,3.37.14,3.59-1.57,5-5.14,4.88-4.48-.18-9-.13-13.47-.09-2.82,0-4.1-1.21-4-4.08.11-3.65.13-7.31,0-11-.1-3.11,1.32-4.32,4.32-4.17C247.25,47.51,249.64,47.42,252,47.42Z"/><path d="M153.49,66.45c-13.79-.49-10.83,1.21-11.18-11.24,0-.42,0-.85,0-1.27,0-6.63,0-6.63,6.53-6.63,3.8,0,7.61.15,11.39,0,3.55-.17,4.81,1.48,4.71,4.79s-.11,6.47,0,9.7-1.12,5-4.7,4.72C158,66.3,155.74,66.45,153.49,66.45Z"/><path d="M127.79,66.5c-11.81-.56-9.91,1.36-10-10.59-.09-8.64,0-8.64,8.71-8.63,3.23,0,6.46.11,9.69,0,2.9-.11,4.12,1.29,4.13,4,0,3.65,0,7.3,0,11,0,2.95-1.37,4.39-4.39,4.29C133.41,66.45,130.88,66.51,127.79,66.5Z"/><path d="M269.75,90.89c13.63.06,11-.41,11.3,11.35v.85c0,7,0,7-6.92,7-3.81,0-7.61-.13-11.41,0-3.16.13-4.31-1.31-4.21-4.29.1-3.24.13-6.48,0-9.72-.1-3.7,1.46-5.52,5.28-5.27C265.8,91,267.78,90.89,269.75,90.89Z"/><path d="M155.79,4.14c11,.2,10-2,10,11,0,7.85,0,7.9-7.7,8.16-3.52.12-7,0-10.56,0-3,0-4.35-1.39-4.27-4.4.09-3.66.06-7.32,0-11,0-2.62,1.13-3.91,3.82-3.83C149.67,4.19,152.21,4.13,155.79,4.14Z"/><path d="M220.56,110.06a50.23,50.23,0,0,0-5.49,0c-4.17.47-6-1.14-5.72-5.45.25-3.22.2-6.47.14-9.71-.05-2.6,1-4,3.68-4,4.93,0,9.85.07,14.78.14,2.76,0,4.08,1.36,4,4.21-.11,3.66-.08,7.33,0,11,0,2.61-1,3.93-3.76,3.82-2.53-.1-5.07,0-7.6,0Z"/><path d="M417.21,110.28c-12.87-.26-11.25,2.12-11.3-11.52,0-7.71.06-7.74,7.75-7.71,3.67,0,7.34.18,11,.24,2.63,0,3.82,1.31,3.76,4-.08,3.53-.12,7.06,0,10.58.13,3.23-1.12,4.72-4.46,4.49C421.74,110.16,419.47,110.28,417.21,110.28Z"/><path d="M179.35,47.35c11,.21,10.12-2,10.13,11.19,0,1.41,0,2.82-.09,4.23-.08,2.34-1.22,3.72-3.65,3.72-5.22,0-10.43,0-15.64-.09-2.19-.05-3.27-1.3-3.24-3.56.06-3.81.07-7.62,0-11.43-.05-2.81,1.14-4.19,4-4.08C173.45,47.42,176,47.35,179.35,47.35Z"/><path d="M203,47.37c11.9.2,11.07-1.87,11.08,11.09,0,1.4-.05,2.81-.08,4.22-.06,2.59-1.44,3.89-4,3.87q-7.6,0-15.21-.18c-2.48-.05-3.42-1.46-3.36-3.86.08-3.66.11-7.33,0-11-.09-3.13,1.38-4.31,4.38-4.18C198.18,47.45,200.58,47.37,203,47.37Z"/><path d="M244.55,110.07c-11.06-.37-10.67,2.84-10.55-11.61,0-1.13.19-2.26.1-3.38-.21-2.64.89-4,3.57-4,5.07,0,10.14-.14,15.21-.13,2.38,0,3.6,1.29,3.59,3.71,0,3.95,0,7.89,0,11.84,0,2.43-1,3.66-3.55,3.6S247.85,110.07,244.55,110.07Z"/><path d="M122.27,110h-3.8c-7.32,0-7.42,0-7.29-7.57.23-13.8-.24-11.51,11.66-11.64s11-.63,10.94,9.57c0,10.84,1,9.57-9.82,9.64Z"/><path d="M146.73,110c-11.1,0-11.1,0-11-11.17,0-1.26.14-2.53.11-3.8-.06-2.77,1.19-4.23,4-4.2,4.93,0,9.86.12,14.79.15,2.7,0,3.76,1.41,3.71,4-.06,3.66-.08,7.33,0,11,.06,2.82-1.08,4.2-4,4.07C151.81,109.88,149.27,110,146.73,110Z"/><path d="M227.71,47.4c11.67.21,10.9-2,10.9,11.18,0,1.12-.08,2.24-.06,3.37,0,3-1.1,4.7-4.46,4.61-4.76-.13-9.54,0-14.31,0-2.58,0-3.87-1.18-3.81-3.87.09-3.79.1-7.59,0-11.38-.06-2.92,1.34-4,4.13-3.94C222.65,47.47,225.18,47.4,227.71,47.4Z"/><path d="M388,4.39c12.36.17,10.82-1.65,10.9,11.09.05,8.15,0,8.18-8,8.13-3.37,0-6.74-.34-10.11-.3-3,0-4.43-1.24-4.36-4.26.08-3.66.13-7.31.1-11,0-2.7,1.25-3.81,3.89-3.72S385.43,4.39,388,4.39Z"/><path d="M367.8,110.23c-11.1,0-11.1,0-11-11,.05-8.09.05-8.12,8.16-8.24,3.52,0,7,0,10.55.1,2.54.07,3.85,1.35,3.81,4-.06,3.66-.1,7.32,0,11,.1,3.1-1.29,4.34-4.33,4.18C372.59,110.12,370.19,110.22,367.8,110.23Z"/><path d="M392.36,110.26h-.42c-10.93-.35-10.66,2.57-10.59-11.05,0-1.54.24-3.09.23-4.63,0-2,.81-3.12,2.92-3.29a117.19,117.19,0,0,1,16-.09,3.18,3.18,0,0,1,3.31,3.56c0,3.94,0,7.88,0,11.82,0,2.7-1.24,3.79-3.89,3.69s-5.06,0-7.59,0Z"/><path d="M294.12,110.14h-1.27c-10.06,0-10.06,0-9.75-10.3.28-8.88.28-8.89,9.11-8.94,3.09,0,6.19,0,9.28,0,2.74,0,4.18,1.23,4.13,4.11-.07,3.66-.12,7.32,0,11,.09,3.1-1.28,4.33-4.33,4.15C298.91,110,296.51,110.14,294.12,110.14Z"/><path d="M318.69,110.17c-11,0-11,0-11-11.14,0-1.4,0-2.81,0-4.21,0-2.37,1.13-3.75,3.54-3.77,4.91,0,9.82,0,14.73.08,2.91,0,4.36,1.35,4.25,4.41-.13,3.51-.13,7,0,10.53.1,3.11-1.31,4.31-4.33,4.13C323.47,110.06,321.08,110.17,318.69,110.17Z"/><path d="M196,110c-.7,0-1.41,0-2.11,0-9.29-.18-8.74,1.63-9-8.89-.21-10.35,0-10.34,11.48-10.36,12.71,0,10.9-.17,11,10.43.05,10,.64,8.74-8.85,8.83Z"/><path d="M344.21,91.12c11.84.34,10.46-1.11,10.51,10.4,0,9.74.44,8.64-8.67,8.68-3.1,0-6.21-.11-9.31,0-2.76.11-4.25-.79-4.23-3.8,0-3.52-.11-7-.31-10.57-.17-3.18,1.18-4.77,4.4-4.74C339.13,91.13,341.67,91.12,344.21,91.12Z"/><path d="M336.35,4.33c12.61.19,10.95-1.72,11,11,.06,8.29,0,8.3-8.3,8.29-3.24,0-6.48-.06-9.73,0-2.73,0-4.2-1.06-4.1-4,.13-3.66.14-7.33,0-11-.1-3.12,1.28-4.37,4.31-4.21C331.83,4.42,334.09,4.33,336.35,4.33Z"/><path d="M48.62,90.75c12.66-.1,10.64-.7,10.7,10.44.06,9.68.89,8.62-8.54,8.68-3.24,0-6.49-.09-9.73,0-2.66.07-3.89-1-3.82-3.75.08-3.66.15-7.33,0-11-.15-3.14,1.31-4.38,4.23-4.39Z"/><path d="M325.55,47.51c10.81,0,10.85,0,10.79,10.62,0,8.95,1.11,8.65-8.69,8.61-2.67,0-5.36-.39-8-.15-4.26.39-5.91-1.22-5.48-5.51a55.5,55.5,0,0,0,0-8.84c-.18-3.38,1.06-5,4.6-4.77C321,47.64,323.3,47.51,325.55,47.51Z"/><path d="M349.89,47.54c12.58.17,10.92-1.65,11,10.92.05,8.09,0,8.12-8.08,8.27-3.23.06-6.46-.13-9.69,0-2.95.1-4.49-.93-4.37-4.12.14-3.65.14-7.31,0-11-.11-3.17,1.4-4.26,4.36-4.11C345.39,47.62,347.64,47.54,349.89,47.54Z"/><path d="M137.24,69.23c11.19.19,9.79-1.81,9.87,11,0,1.26-.07,2.53-.08,3.8,0,2.72-1.16,4.12-4.11,4-4.78-.14-9.58-.13-14.37,0-2.93.06-4.05-1.27-4-4.09.09-3.52.12-7,0-10.57-.09-3.1,1.3-4.35,4.33-4.2C131.3,69.31,133.7,69.22,137.24,69.23Z"/><path d="M48.33,47.2c11.09,0,11.09,0,11.07,11.25,0,8,0,8-8.09,8-3.52,0-7-.32-10.56-.37-2.51,0-3.53-1.22-3.48-3.67.08-3.66.12-7.33,0-11-.1-3.1,1.25-4.38,4.3-4.22C43.82,47.29,46.08,47.2,48.33,47.2Z"/><path d="M256.92,88.17c-11.24-.15-9.52,1.48-9.61-10.71-.06-8.11,0-8.12,8-8.11,3.53,0,7.06.09,10.58,0,2.7-.07,3.9,1.27,3.93,3.81.05,3.8,0,7.61,0,11.41,0,2.69-1.48,3.72-4.06,3.63S260.7,88.17,256.92,88.17Z"/><path d="M48.5,4C61,4.18,59.24,2.4,59.34,14.67c.06,8.57,0,8.59-8.47,8.56-3.37,0-6.75-.2-10.13-.24-2.43,0-3.58-1.13-3.52-3.63.08-3.66.14-7.33,0-11-.13-3.31,1.3-4.61,4.53-4.41C44,4.11,46.25,4,48.5,4Z"/><path d="M72.93,44.77C61.55,44.44,62,47.39,62.15,33.09c.06-7.15.16-7.15,7.33-7.15,3.81,0,7.62.07,11.43,0,2.66,0,3.86,1.18,3.82,3.84,0,3.52-.13,7.06,0,10.57.15,3.32-1.3,4.63-4.53,4.43C78,44.67,75.71,44.77,72.93,44.77Z"/><path d="M277.8,47.47c11.08.2,9.3-1.79,9.41,10.77.07,8.47,0,8.5-8.65,8.44-3.37,0-6.75-.22-10.13-.22-2.32,0-3.33-1.1-3.31-3.36,0-3.94.06-7.89,0-11.84-.05-2.66,1.13-3.89,3.8-3.82S274,47.46,277.8,47.47Z"/><path d="M374.4,47.56c12.64.2,11-1.68,11.06,10.92.06,8.49,0,8.5-8.58,8.31-1.55,0-3.09-.27-4.64-.24-10.77.14-8.82-.38-8.85-8.89,0-11.38-1.3-10,10.17-10.1Z"/><path d="M185,69.26c1.83,0,2.5-.18,5.49,0s5.72,1.26,5.81,5.47c.28,13.41.4,13.44-13,13.38-10.71,0-9.61,1.11-9.64-9.83,0-9.66-.67-9,8.84-9Z"/><path d="M307.46,88.24c-12.73-.18-10.88,1.55-11-11V76c0-6.6,0-6.6,6.51-6.61,4.09,0,8.18.07,12.26,0,2.49,0,3.66,1.18,3.7,3.55.06,3.67.05,7.33.09,11,0,3.24-1.57,4.54-4.76,4.31C312,88.11,309.72,88.24,307.46,88.24Z"/><path d="M234.23,69.32h1.27c10,0,10.08,0,9.82,9.87-.26,10.12.71,8.88-8.87,9-3.38,0-6.76-.05-10.13,0-2.47,0-3.6-1.15-3.57-3.61,0-3.8.05-7.6,0-11.4,0-2.67,1.25-3.85,3.88-3.79s5.06,0,7.6,0Z"/><path d="M300.94,47.48c10.86,0,10.86,0,10.85,11.05,0,8.47-.2,8.6-8.86,8.08-3.08-.19-6.18-.13-9.27-.13-2.75,0-4.15-1.13-4-4.08.15-3.51.16-7,0-10.55-.15-3.34,1.32-4.6,4.53-4.4C296.43,47.59,298.69,47.48,300.94,47.48Z"/><path d="M111,88c-12.52-.2-10.8,1.71-10.94-11.09,0-1.41,0-2.82,0-4.23,0-2.5,1.24-3.54,3.68-3.51q7.41.07,14.82,0c2.46,0,3.63,1,3.64,3.52,0,3.67.16,7.33.23,11,.06,3.19-1.43,4.6-4.69,4.33C115.51,87.87,113.24,88,111,88Z"/><path d="M209.75,69.3a4.7,4.7,0,0,1,.84,0c3.18.58,9.2-.39,9.29,1.57s1.31,10.51.16,15.79c-.28,1.3-1.64,1.41-2.79,1.42-5.2,0-10.41,0-15.61,0-2.54,0-3.48-1.34-3.46-3.72,0-3.65.09-7.31,0-11-.09-3.15,1.45-4.26,4.41-4.13C205,69.38,207.36,69.3,209.75,69.3Z"/><path d="M160.49,69.24c12.6.28,10.32-2.17,11.15,11.58.07,1.25-.21,2.53-.24,3.79-.05,2.46-1.24,3.52-3.71,3.48q-7.4-.12-14.81,0c-2.76,0-3.77-1.3-3.73-3.9.06-3.53.13-7.06,0-10.58-.13-3.34,1.38-4.58,4.58-4.38C156,69.35,158.23,69.24,160.49,69.24Z"/><path d="M283.17,88.19C270,88,272,89.88,271.88,76.7c-.08-7.34,0-7.34,7.49-7.33,3.52,0,7,.13,10.55,0,3.11-.12,4.3,1.25,4.23,4.27-.09,3.66,0,7.31.12,11,.08,2.47-1,3.66-3.5,3.6S285.71,88.19,283.17,88.19Z"/><path d="M286.68,26.19C299,26.36,297.3,24.61,297.4,37c.06,8.07,0,8.08-7.89,8.07-3.65,0-7.3-.05-11,0-2.27,0-3.35-1.06-3.34-3.33,0-3.94.06-7.87,0-11.8,0-2.74,1.29-3.78,3.9-3.7S284.15,26.2,286.68,26.19Z"/><path d="M48.23,69.11c12.8.17,10.92-1.52,11,11,.07,7.87,0,7.87-7.68,7.86-3.53,0-7.06-.12-10.59,0-3,.11-3.94-1.39-3.85-4.15.11-3.52.15-7,0-10.57-.13-3.18,1.31-4.31,4.32-4.14C43.71,69.21,46,69.12,48.23,69.11Z"/><path d="M360,45.1c-11.15,0-11.15,0-11.13-11.14a26.39,26.39,0,0,0,0-2.95c-.4-3.74,1.35-5,4.93-4.79,4.49.21,9,.11,13.48.07,2.66,0,3.85,1.18,3.81,3.82-.06,3.79-.08,7.59,0,11.38.06,2.77-1.33,3.72-3.91,3.63C364.79,45,362.4,45.09,360,45.1Z"/><path d="M310.61,45c-12.52-.17-10.73,1.67-10.84-10.68-.07-8.15,0-8.15,8.35-8.14,3.25,0,6.5.09,9.74,0,2.81-.06,4.2,1.07,4.12,4q-.14,5.51,0,11c.06,2.64-1,3.94-3.74,3.84C315.69,45,313.15,45,310.61,45Z"/><path d="M237.28,26.14c12.71.19,10.89-1.69,11,10.87.07,8,0,8-8,8-3.23,0-6.46-.13-9.68,0s-4.75-.92-4.57-4.31.15-6.74,0-10.11,1.23-4.65,4.48-4.46C232.78,26.24,235,26.14,237.28,26.14Z"/><path d="M214,26.12c11.41.18,9.64-1.67,9.73,10.68.07,9.08.6,8.07-8.27,8.14-3.25,0-6.5-.1-9.74,0-2.76.09-4.24-.82-4.12-3.86.15-3.66.14-7.34,0-11-.09-2.94,1.26-4.09,4.08-4C208.08,26.18,210.48,26.12,214,26.12Z"/><path d="M163.13,44.87c-10.65,0-10.65,0-10.64-10.84,0-8,0-8,8.12-8,3.38,0,6.77.08,10.15,0,2.64-.06,3.92,1,3.86,3.73-.09,3.81-.1,7.62,0,11.43.07,2.75-1.23,3.79-3.87,3.69S165.67,44.87,163.13,44.87Z"/><path d="M139,44.85c-11,0-11,0-11-10.87,0-8,0-8,8.15-8,3.38,0,6.77.08,10.15,0,2.67-.06,3.89,1.05,3.82,3.76-.09,3.81-.1,7.62,0,11.43.07,2.78-1.25,3.77-3.87,3.66C143.77,44.77,141.37,44.85,139,44.85Z"/><path d="M48,44.74c-10.81,0-10.82,0-10.79-10.71,0-8.85-.66-8.09,8.34-8.11,3.24,0,6.49.08,9.73,0,2.83-.07,4.16,1.09,4.07,4-.12,3.67-.12,7.34,0,11,.08,2.66-1,3.93-3.71,3.83C53.09,44.67,50.54,44.74,48,44.74Z"/><path d="M381.48,69.51c12.38.19,10.65-1.71,10.72,10.78.05,8.67.74,8-7.94,8-3.53,0-7.06,0-10.58,0-2.45,0-3.64-1-3.59-3.54.08-3.81.1-7.62,0-11.43-.06-2.65,1.05-3.93,3.75-3.86C376.4,69.56,378.94,69.51,381.48,69.51Z"/><path d="M188.39,26.08c12.45.18,10.67-1.63,10.76,10.77.06,8.7.68,8.06-7.93,8.06-3.53,0-7.06-.07-10.58,0-2.45,0-3.66-.93-3.6-3.49.09-3.81.11-7.62,0-11.43-.09-3,1.38-4,4.15-3.92C183.59,26.15,186,26.09,188.39,26.08Z"/><path d="M336.32,26.26c11.87.16,10.06-1.62,10.21,11.2,0,1.27-.06,2.54,0,3.81.13,2.65-1,3.87-3.75,3.82-4.94-.09-9.87-.07-14.81,0-2.42,0-3.68-1-3.64-3.49.06-3.81.09-7.62,0-11.42-.07-3,1.43-4,4.18-3.92C330.76,26.31,333,26.25,336.32,26.26Z"/><path d="M261.52,45c-12.64-.19-10.7,1.7-10.88-11.07,0-1.27.07-2.54,0-3.81-.15-2.94,1.33-4,4.12-4,4.66.08,9.31.1,14,0,3.16-.07,4.25,1.45,4.14,4.42-.11,3.24-.17,6.49,0,9.72.2,3.41-1,5-4.59,4.74C266,44.84,263.78,45,261.52,45Z"/><path d="M332.28,69.45c10.83,0,10.85,0,10.81,10.67,0,9,.76,8.11-8.23,8.15-3.39,0-6.77-.08-10.15,0-2.71,0-3.8-1.22-3.74-3.87.09-3.66.1-7.33,0-11-.08-2.93,1.32-4.06,4.12-4C327.49,69.51,329.89,69.45,332.28,69.45Z"/><path d="M357.8,69.47c11.57.2,9.75-1.64,9.84,10.73.06,8.86.77,8.07-8.29,8.09-3.24,0-6.48-.08-9.72,0-2.79.08-4.2-1-4.1-4q.17-5.49,0-11c-.09-3,1.41-4,4.16-3.9C352.09,69.53,354.49,69.47,357.8,69.47Z"/><ellipse class="cls-1" cx="4.28" cy="107.83" rx="2.55" ry="3.39" transform="translate(-103.63 107.68) rotate(-87.65)"/><rect class="cls-1" x="0.96" y="104.32" width="6.78" height="3.51" transform="translate(4.35 212.23) rotate(-177.65)"/><path class="cls-2" d="M6.42,4.7,5,0,3.63,4.51Z"/><path class="cls-3" d="M8.74,14.7l-7.29,0C2.24,11,3,7.4,3.77,3.89A1.31,1.31,0,0,1,6.23,4C7.09,7.45,7.88,11,8.74,14.7Z"/><path class="cls-4" d="M2.77,104.31l.35-89.56a1.86,1.86,0,0,1,.3-.17c5.9-.51,5.09-1.49,5.06,5q-.12,40.85-.31,81.67c0,3.1,0,3.1-2.8,3Z"/><path class="cls-4" d="M1.59,14.52h2.6l-.35,89.61H1.24Z"/><line class="cls-5" x1="9" y1="104.48" x2="0.01" y2="104.17"/></g></g></svg>